<svg xmlns="http://www.w3.org/2000/svg" xmlns:xlink="http://www.w3.org/1999/xlink" id="Layer_1" x="0" y="0" version="1.1" viewBox="0 0 960 560" xml:space="preserve" style="enable-background:new 0 0 960 560"><style type="text/css">.st0{fill:#fff}.st1{fill:#00b6ee}.st2{fill:none;stroke:#fff;stroke-width:10;stroke-linecap:round;stroke-miterlimit:10}</style><circle cx="481.9" cy="279.9" r="211.5" class="st0"/><circle cx="268.5" cy="262.6" r="61.6" class="st0"/><circle cx="691.5" cy="262.6" r="61.6" class="st0"/><circle cx="481.9" cy="279.9" r="211.5" class="st1"/><circle cx="268.5" cy="262.6" r="61.6" class="st1"/><circle cx="691.5" cy="262.6" r="61.6" class="st1"/><path d="M268.5,299c-20.3,0-36.8-16.5-36.8-36.8s16.5-36.8,36.8-36.8" class="st2"/><path d="M693,299c20.3,0,36.8-16.5,36.8-36.8s-16.5-36.8-36.8-36.8" class="st2"/><g><circle cx="523.9" cy="237" r="24.1" class="st0"/><path d="M415.8,238.4c0.2,13.3,11.1,24,24.4,23.8c13.3-0.2,24-11.1,23.8-24.4c-0.2-13.3-11.1-24-24.4-23.8 C426.3,214.1,415.6,225,415.8,238.4z" class="st0"/></g><path d="M483.8,410.1c22.1,0,40-17.9,40-40h-80.1C443.8,392.2,461.7,410.1,483.8,410.1z" class="st0"/></svg>