<svg xmlns="http://www.w3.org/2000/svg" xmlns:xlink="http://www.w3.org/1999/xlink" id="Layer_1" x="0" y="0" version="1.1" viewBox="-594 374 40 40" xml:space="preserve" style="enable-background:new -594 374 40 40"><style type="text/css">.st0{fill:#c2bfd9}</style><g id="XMLID_1_"><path id="XMLID_8_" d="M-566,401h-0.4c-3.4,0-6.1-4.3-8.8-8.5c-2.8-4.7-5.8-9.5-10.4-9.5h-3.4v2h3.4 c3.4,0,6.1,4.3,8.8,8.5c2.8,4.7,5.8,9.5,10.4,9.5h0.4v3l5-4l-5-4V401z" class="st0"/><path id="XMLID_9_" d="M-585.6,401h-3.4v2h3.4c3.4,0,5.8-2.7,7.3-4.8l-1.6-1.2C-581.9,399.8-583.7,401-585.6,401z" class="st0"/><path id="XMLID_48_" d="M-566.4,385h0.4v3l5-4l-5-4v3h-0.4c-3.4,0-5.8,2.7-7.4,4.8l1.6,1.2 C-570.1,386.2-568.3,385-566.4,385z" class="st0"/></g></svg>