<svg xmlns="http://www.w3.org/2000/svg" xmlns:xlink="http://www.w3.org/1999/xlink" x="0" y="0" enable-background="new 0 0 1024 1024" version="1.1" viewBox="0 0 1024 1024" xml:space="preserve"><g id="art"><g opacity=".75"><g><rect width="4" height="97.7" x="279.8" y="510.8" fill="#555"/></g><g><g><rect width="501.5" height="279.8" x="269.3" y="371" fill="#2D2D2D"/></g><g><rect width="415.7" height="125.4" x="341.8" y="525.4" fill="#F5F5F5"/></g><g><g><g><rect width="13.2" height="77.9" x="361.6" y="525.4"/></g><g><rect width="13.2" height="77.9" x="384.1" y="525.4"/></g><g><rect width="13.2" height="77.9" x="406.5" y="525.4"/></g></g><g><g><rect width="13.2" height="77.9" x="439.5" y="525.4"/></g><g><rect width="13.2" height="77.9" x="461.9" y="525.4"/></g></g><g><g><rect width="13.2" height="77.9" x="493.6" y="525.4"/></g><g><rect width="13.2" height="77.9" x="516" y="525.4"/></g><g><rect width="13.2" height="77.9" x="538.5" y="525.4"/></g></g><g><g><rect width="13.2" height="77.9" x="570.1" y="525.4"/></g><g><rect width="13.2" height="77.9" x="592.6" y="525.4"/></g></g><g><g><rect width="13.2" height="77.9" x="624.3" y="525.4"/></g><g><rect width="13.2" height="77.9" x="646.7" y="525.4"/></g><g><rect width="13.2" height="77.9" x="669.1" y="525.4"/></g></g><g><g><rect width="13.2" height="77.9" x="702.1" y="525.4"/></g><g><rect width="13.2" height="77.9" x="724.5" y="525.4"/></g></g></g><g><rect width="56.7" height="101.6" x="285.1" y="525.4"/></g><g><rect width="501.5" height="56.7" x="269.3" y="468.6" fill="#555"/></g><g><rect width="472.4" height="97.7" x="285.1" y="371"/></g><g><rect width="472.4" height="14.5" x="285.1" y="371" fill="#484848"/></g><g><g><circle cx="330.2" cy="441.4" r="8.4" fill="#8A8A8A"/></g><g><circle cx="302.5" cy="441.4" r="8.4" fill="#8A8A8A"/></g><g><circle cx="316.3" cy="412.3" r="8.4" fill="#8A8A8A"/></g></g><g><rect width="5.3" height="83.1" x="347.1" y="385.5" fill="#555"/></g><g><rect width="5.3" height="95" x="754.9" y="373.6" fill="#555"/></g><g><rect width="4" height="83.1" x="434.2" y="385.5" fill="#555"/></g><g><rect width="5.3" height="83.1" x="535.8" y="385.5" fill="#555"/></g><g><rect width="5.3" height="83.1" x="634.8" y="385.5" fill="#555"/></g><g><rect width="4" height="83.1" x="725.9" y="385.5" fill="#555"/></g><g><rect width="15.8" height="6.6" x="341.8" y="409.2" fill="#707070"/></g><g><rect width="5.3" height="14.5" x="357.7" y="430.3" fill="#707070"/></g><g><rect width="6.6" height="14.5" x="740.4" y="430.3" fill="#707070"/></g><g><g><rect width="14.5" height="6.6" x="467.2" y="443.5" fill="#515151"/></g><g><rect width="14.5" height="6.6" x="467.2" y="433" fill="#515151"/></g><g><rect width="14.5" height="6.6" x="467.2" y="422.4" fill="#515151"/></g><g><rect width="14.5" height="6.6" x="467.2" y="411.9" fill="#515151"/></g><g><rect width="14.5" height="6.6" x="467.2" y="401.3" fill="#515151"/></g></g><g><g><rect width="6.6" height="15.8" x="516" y="434.3" fill="#515151"/></g><g><rect width="14.5" height="6.6" x="512.1" y="422.4" fill="#707070"/></g><g><rect width="14.5" height="6.6" x="512.1" y="411.9" fill="#707070"/></g><g><rect width="14.5" height="6.6" x="512.1" y="401.3" fill="#707070"/></g></g><g><g><circle cx="384.3" cy="444.6" r="5.1" fill="#8A8A8A"/></g><g><circle cx="384.3" cy="427.5" r="5.1" fill="#8A8A8A"/></g><g><circle cx="384.3" cy="410.4" r="5.1" fill="#8A8A8A"/></g></g><g><g><circle cx="402.8" cy="444.6" r="5.1" fill="#D6D6D6"/></g><g><circle cx="402.8" cy="427.5" r="5.1" fill="#D6D6D6"/></g></g><g><g><circle cx="496.5" cy="444.6" r="5.1" fill="#D6D6D6"/></g><g><circle cx="496.5" cy="427.5" r="5.1" fill="#D6D6D6"/></g></g><g><g><circle cx="421.3" cy="444.6" r="5.1" fill="#8A8A8A"/></g><g><circle cx="421.3" cy="427.5" r="5.1" fill="#8A8A8A"/></g><g><circle cx="421.3" cy="410.4" r="5.1" fill="#8A8A8A"/></g></g><g><g><circle cx="452.9" cy="444.6" r="5.1" fill="#8A8A8A"/></g><g><circle cx="452.9" cy="427.5" r="5.1" fill="#8A8A8A"/></g><g><circle cx="452.9" cy="410.4" r="5.1" fill="#8A8A8A"/></g></g><g><g><circle cx="660.1" cy="444.6" r="5.1" fill="#8A8A8A"/></g><g><path fill="#8A8A8A" d="M694.4,450.7c-3.4,0-6.1-2.8-6.1-6.1s2.8-6.1,6.1-6.1s6.1,2.8,6.1,6.1S697.8,450.7,694.4,450.7z M694.4,440.4c-2.3,0-4.1,1.9-4.1,4.1s1.9,4.1,4.1,4.1s4.1-1.9,4.1-4.1S696.7,440.4,694.4,440.4z"/></g><g><circle cx="660.1" cy="427.5" r="5.1" fill="#515151"/></g><g><circle cx="660.1" cy="410.4" r="5.1" fill="#8A8A8A"/></g></g><g><g><g><circle cx="565.1" cy="444.6" r="5.1" fill="#8A8A8A"/></g><g><circle cx="565.1" cy="427.5" r="5.1" fill="#8A8A8A"/></g><g><circle cx="565.1" cy="410.4" r="5.1" fill="#8A8A8A"/></g></g><g><g><circle cx="590.8" cy="444.6" r="5.1" fill="#8A8A8A"/></g><g><circle cx="590.8" cy="427.5" r="5.1" fill="#8A8A8A"/></g><g><circle cx="590.8" cy="410.4" r="5.1" fill="#8A8A8A"/></g></g><g><g><circle cx="616.6" cy="444.6" r="5.1" fill="#8A8A8A"/></g><g><circle cx="616.6" cy="427.5" r="5.1" fill="#8A8A8A"/></g><g><circle cx="616.6" cy="410.4" r="5.1" fill="#8A8A8A"/></g></g></g><g><rect width="15.8" height="6.6" x="686.3" y="401.3" fill="#515151"/></g><g><rect width="51.5" height="23.8" x="688.9" y="487.1" fill="#2D2D2D"/></g></g></g></g></svg>