<svg xmlns="http://www.w3.org/2000/svg" xmlns:xlink="http://www.w3.org/1999/xlink" id="Art" x="0" y="0" version="1.1" viewBox="0 0 521 521" xml:space="preserve" style="enable-background:new 0 0 521 521"><style type="text/css">.st0{fill:#231f20}</style><g id="XMLID_1_"><polygon id="XMLID_2_" points="272.3 164.1 248.7 164.1 248.7 281.8 230.8 281.8 230.8 356.9 290.2 356.9 290.2 281.8 272.3 281.8" class="st0"/><polygon id="XMLID_3_" points="320.5 281.8 302.5 281.8 302.5 356.9 362 356.9 362 164.1 320.5 164.1" class="st0"/><polygon id="XMLID_4_" points="200.5 164.1 159 164.1 159 356.9 218.5 356.9 218.5 281.8 200.5 281.8" class="st0"/><path id="XMLID_12_" d="M218.5,356.9H159V164.1h41.5v117.7h18V356.9z M290.2,356.9h-59.5v-75.1h18V164.1h23.5v117.7h18 V356.9z M362,356.9h-59.5v-75.1h18V164.1H362V356.9z" class="st0"/></g></svg>