<svg xmlns="http://www.w3.org/2000/svg" xmlns:xlink="http://www.w3.org/1999/xlink" id="Layer_1" x="0" y="0" version="1.1" viewBox="0 0 960 560" xml:space="preserve" style="enable-background:new 0 0 960 560"><style type="text/css">.st0{fill:#fff}.st1{fill:#00b6ee}.st2{fill:none;stroke:#fff;stroke-width:10;stroke-linecap:round;stroke-miterlimit:10}</style><circle cx="480" cy="279.9" r="211.5" class="st0"/><circle cx="268.5" cy="262.6" r="61.6" class="st0"/><circle cx="268.5" cy="262.6" r="61.6" class="st1"/><circle cx="691.5" cy="262.6" r="61.6" class="st0"/><circle cx="691.5" cy="262.6" r="61.6" class="st1"/><circle cx="480" cy="279.9" r="211.5" class="st1"/><line x1="472" x2="491.8" y1="387" y2="387" class="st2"/><g><path d="M501.7,245.9c3.6,9,12.5,15.4,22.7,15.2c10.1-0.1,18.6-6.4,22.1-15.2" class="st2"/><path d="M417.3,245.9c3.3,9.6,12.4,16.4,23.1,16.3c10.5-0.1,19.3-6.9,22.5-16.3" class="st2"/></g><path d="M305.3,262.2" class="st2"/><path d="M268.5,299c-20.3,0-36.8-16.5-36.8-36.8s16.5-36.8,36.8-36.8" class="st2"/><path d="M693,299c20.3,0,36.8-16.5,36.8-36.8s-16.5-36.8-36.8-36.8" class="st2"/></svg>