<?xml version="1.0" encoding="utf-8"?>
<!-- Generator: Adobe Illustrator 19.1.0, SVG Export Plug-In . SVG Version: 6.00 Build 0)  -->
<svg version="1.1" id="Layer_1" xmlns="http://www.w3.org/2000/svg" xmlns:xlink="http://www.w3.org/1999/xlink" x="0px" y="0px"
	 viewBox="0 0 960 560" style="enable-background:new 0 0 960 560;" xml:space="preserve">
<style type="text/css">
	.st0{fill:#FFFFFF;}
	.st1{fill:#00B6EE;}
	.st2{fill:none;stroke:#FFFFFF;stroke-width:10;stroke-linecap:round;stroke-miterlimit:10;}
</style>
<circle class="st0" cx="480" cy="279.9" r="211.5"/>
<circle class="st0" cx="268.5" cy="262.6" r="61.6"/>
<circle class="st1" cx="268.5" cy="262.6" r="61.6"/>
<circle class="st0" cx="691.5" cy="262.6" r="61.6"/>
<circle class="st1" cx="691.5" cy="262.6" r="61.6"/>
<circle class="st1" cx="480" cy="279.9" r="211.5"/>
<line class="st2" x1="472" y1="387" x2="491.8" y2="387"/>
<g>
	<path class="st2" d="M501.7,245.9c3.6,9,12.5,15.4,22.7,15.2c10.1-0.1,18.6-6.4,22.1-15.2"/>
	<path class="st2" d="M417.3,245.9c3.3,9.6,12.4,16.4,23.1,16.3c10.5-0.1,19.3-6.9,22.5-16.3"/>
</g>
<path class="st2" d="M305.3,262.2"/>
<path class="st2" d="M268.5,299c-20.3,0-36.8-16.5-36.8-36.8s16.5-36.8,36.8-36.8"/>
<path class="st2" d="M693,299c20.3,0,36.8-16.5,36.8-36.8s-16.5-36.8-36.8-36.8"/>
</svg>
